<svg width="154" height="102" viewBox="0 0 154 102" fill="none" xmlns="http://www.w3.org/2000/svg">
<rect width="154" height="102" rx="20" fill="white"/>
<path d="M61.5 69H52.95L38.65 47.35V69H30.1V33.9H38.65L52.95 55.65V33.9H61.5V69ZM88.9477 51C90.981 51.4333 92.6143 52.45 93.8477 54.05C95.081 55.6167 95.6977 57.4167 95.6977 59.45C95.6977 62.3833 94.6643 64.7167 92.5977 66.45C90.5643 68.15 87.7143 69 84.0477 69H67.6977V33.9H83.4977C87.0643 33.9 89.8477 34.7167 91.8477 36.35C93.881 37.9833 94.8977 40.2 94.8977 43C94.8977 45.0667 94.3477 46.7833 93.2477 48.15C92.181 49.5167 90.7477 50.4667 88.9477 51ZM76.2477 48.1H81.8477C83.2477 48.1 84.3143 47.8 85.0477 47.2C85.8143 46.5667 86.1977 45.65 86.1977 44.45C86.1977 43.25 85.8143 42.3333 85.0477 41.7C84.3143 41.0667 83.2477 40.75 81.8477 40.75H76.2477V48.1ZM82.5477 62.1C83.981 62.1 85.081 61.7833 85.8477 61.15C86.6477 60.4833 87.0477 59.5333 87.0477 58.3C87.0477 57.0667 86.631 56.1 85.7977 55.4C84.9977 54.7 83.881 54.35 82.4477 54.35H76.2477V62.1H82.5477ZM125.907 33.9V40.75H116.607V69H108.057V40.75H98.7566V33.9H125.907Z" fill="black"/>
</svg>
